<svg xmlns="http://www.w3.org/2000/svg" width="43.057" height="63.1" viewBox="0 0 43.057 63.1">
  <path id="flash" d="M72.141,23.591c-.234-.394-.719-.381-1.193-.381L51.585,26.455,56.076,1.841A1.262,1.262,0,0,0,55.2.519a1.357,1.357,0,0,0-1.551.5L32.459,36.2a1.455,1.455,0,0,0-.079,1.4c.233.4.946.449,1.423.449L53.013,34.8l-4.46,24.486a.945.945,0,0,0,.777,1.086,1.227,1.227,0,0,0,1.46-.474L71.9,25.015A1.564,1.564,0,0,0,72.141,23.591Z" transform="translate(-30.711 1.099)" fill="none" stroke="#000" stroke-width="3"/>
</svg>
